<svg width="17" height="16" viewBox="0 0 17 16" fill="none" xmlns="http://www.w3.org/2000/svg">
<path d="M8.5 0.25C4.21875 0.25 0.75 3.71875 0.75 8C0.75 12.2812 4.21875 15.75 8.5 15.75C12.7812 15.75 16.25 12.2812 16.25 8C16.25 3.71875 12.7812 0.25 8.5 0.25ZM7.59375 4.75C7.28125 4.46875 7.28125 3.96875 7.5625 3.6875L7.90625 3.34375C8.21875 3.03125 8.6875 3.03125 8.96875 3.34375L13.125 7.5C13.4062 7.78125 13.4062 8.25 13.125 8.53125L8.96875 12.6875C8.6875 12.9688 8.21875 12.9688 7.90625 12.6875L7.5625 12.3438C7.28125 12.0625 7.28125 11.5625 7.59375 11.2812L9.9375 9H4.25C3.8125 9 3.5 8.6875 3.5 8.25V7.75C3.5 7.34375 3.8125 7 4.25 7H9.9375L7.59375 4.75Z" fill="white"/>
</svg>
