<svg width="20" height="20" viewBox="0 0 20 20" fill="none" xmlns="http://www.w3.org/2000/svg">
<path fill-rule="evenodd" clip-rule="evenodd" d="M1.6665 10.0001C1.6665 5.39175 5.3915 1.66675 9.99984 1.66675C14.6082 1.66675 18.3332 5.39175 18.3332 10.0001C18.3332 14.6084 14.6082 18.3334 9.99984 18.3334C5.3915 18.3334 1.6665 14.6084 1.6665 10.0001ZM12.4082 13.5834C12.7332 13.9084 13.2582 13.9084 13.5832 13.5834C13.8998 13.2584 13.8998 12.7251 13.5832 12.4084L11.1748 10.0001L13.5832 7.59175C13.9082 7.26675 13.9082 6.74175 13.5832 6.41675C13.2582 6.09175 12.7332 6.09175 12.4082 6.41675L9.99984 8.82508L7.5915 6.41675C7.2665 6.09175 6.7415 6.09175 6.4165 6.41675C6.26046 6.57244 6.17277 6.78382 6.17277 7.00425C6.17277 7.22468 6.26046 7.43606 6.4165 7.59175L8.82484 10.0001L6.4165 12.4084C6.26046 12.5641 6.17277 12.7755 6.17277 12.9959C6.17277 13.2163 6.26046 13.4277 6.4165 13.5834C6.7415 13.9084 7.2665 13.9084 7.5915 13.5834L9.99984 11.1751L12.4082 13.5834Z" fill="#EF4444"/>
</svg>
