<svg width="34" height="34" viewBox="0 0 34 34" fill="none" xmlns="http://www.w3.org/2000/svg">
<path d="M26.7664 16.5053C24.9119 12.8408 21.2405 10.3615 17.0367 10.3615C12.8329 10.3615 9.16045 12.8425 7.30697 16.5056C7.22875 16.6624 7.18799 16.8355 7.18799 17.0111C7.18799 17.1867 7.22875 17.3599 7.30697 17.5166C9.16147 21.1811 12.8329 23.6604 17.0367 23.6604C21.2405 23.6604 24.9129 21.1793 26.7664 17.5162C26.8446 17.3595 26.8854 17.1864 26.8854 17.0108C26.8854 16.8352 26.8446 16.662 26.7664 16.5053ZM17.0367 21.9981C16.0627 21.9981 15.1107 21.7056 14.3009 21.1576C13.491 20.6096 12.8599 19.8307 12.4872 18.9194C12.1145 18.0081 12.0169 17.0054 12.2069 16.038C12.397 15.0706 12.8659 14.182 13.5546 13.4845C14.2433 12.7871 15.1208 12.3121 16.076 12.1196C17.0312 11.9272 18.0213 12.026 18.9211 12.4034C19.821 12.7809 20.59 13.4201 21.1311 14.2402C21.6722 15.0604 21.961 16.0246 21.961 17.0109C21.9613 17.6659 21.8342 18.3146 21.5868 18.9198C21.3395 19.525 20.9768 20.0749 20.5194 20.5381C20.0621 21.0012 19.5191 21.3686 18.9215 21.6191C18.3239 21.8696 17.6834 21.9984 17.0367 21.9981ZM17.0367 13.6862C16.7437 13.6903 16.4525 13.7345 16.1712 13.8175C16.4031 14.1367 16.5144 14.5295 16.4849 14.9246C16.4553 15.3198 16.287 15.6912 16.0103 15.9714C15.7335 16.2517 15.3668 16.4222 14.9766 16.4521C14.5864 16.482 14.1986 16.3693 13.8834 16.1344C13.7039 16.804 13.7363 17.5138 13.976 18.1639C14.2157 18.8139 14.6507 19.3714 15.2197 19.758C15.7886 20.1446 16.463 20.3407 17.1478 20.3188C17.8326 20.2969 18.4934 20.058 19.0372 19.6359C19.5809 19.2137 19.9802 18.6295 20.179 17.9654C20.3777 17.3014 20.3658 16.5909 20.1449 15.9341C19.9241 15.2772 19.5054 14.707 18.9478 14.3038C18.3902 13.9006 17.7218 13.6846 17.0367 13.6862Z" fill="#B2B3C2"/>
</svg>
