<svg width="34" height="34" viewBox="0 0 34 34" fill="none" xmlns="http://www.w3.org/2000/svg">
<path d="M16.9999 22.0624C14.3926 22.0624 12.2819 19.9984 12.0877 17.3828L8.48179 14.5328C8.00776 15.141 7.57155 15.784 7.21955 16.4871C7.14091 16.6462 7.09994 16.8219 7.09994 17.0002C7.09994 17.1784 7.14091 17.3542 7.21955 17.5133C9.0837 21.2331 12.7742 23.7499 16.9999 23.7499C17.9249 23.7499 18.8173 23.6093 19.6774 23.3822L17.8936 21.9707C17.5991 22.0289 17.2999 22.0596 16.9999 22.0624ZM27.7874 24.105L23.9873 21.1013C25.1416 20.1063 26.091 18.8866 26.7802 17.5129C26.8589 17.3538 26.8998 17.1781 26.8998 16.9998C26.8998 16.8216 26.8589 16.6458 26.7802 16.4867C24.9161 12.7669 21.2256 10.2501 16.9999 10.2501C15.2301 10.2523 13.4891 10.7079 11.9358 11.5754L7.56261 8.11857C7.50558 8.07318 7.44037 8.03974 7.3707 8.02014C7.30103 8.00054 7.22826 7.99518 7.15656 8.00435C7.08486 8.01353 7.01564 8.03706 6.95283 8.07361C6.89003 8.11016 6.83488 8.159 6.79055 8.21736L6.11577 9.10574C6.02626 9.22351 5.98615 9.37282 6.00426 9.52083C6.02237 9.66884 6.09723 9.80342 6.21236 9.89499L26.4372 25.8814C26.4942 25.9268 26.5594 25.9603 26.6291 25.9799C26.6988 25.9995 26.7715 26.0048 26.8432 25.9956C26.9149 25.9865 26.9842 25.9629 27.047 25.9264C27.1098 25.8898 27.1649 25.841 27.2092 25.7826L27.8844 24.8943C27.9738 24.7764 28.0139 24.6271 27.9957 24.4791C27.9775 24.3311 27.9026 24.1965 27.7874 24.105ZM21.4721 19.1129L20.1211 18.0448C20.2349 17.7086 20.2952 17.3558 20.2999 17C20.3066 16.4791 20.1937 15.9638 19.9704 15.4956C19.7471 15.0274 19.4195 14.6192 19.014 14.304C18.6084 13.9887 18.1363 13.7751 17.6354 13.6803C17.1345 13.5856 16.6188 13.6123 16.1299 13.7583C16.3371 14.0455 16.4493 14.393 16.4499 14.75C16.4448 14.8688 16.427 14.9867 16.397 15.1016L13.8666 13.1016C14.7456 12.3504 15.8544 11.9384 16.9999 11.9376C17.65 11.9372 18.2939 12.0679 18.8946 12.3222C19.4953 12.5764 20.0411 12.9493 20.5009 13.4195C20.9606 13.8896 21.3252 14.4479 21.5738 15.0622C21.8225 15.6766 21.9502 16.3351 21.9499 17C21.9499 17.7604 21.768 18.4692 21.4721 19.1132V19.1129Z" fill="#388AD6"/>
</svg>
