<svg width="18" height="18" viewBox="0 0 18 18" fill="none" xmlns="http://www.w3.org/2000/svg">
<path d="M11.0625 7.1875C10.7188 6.84375 10.3438 6.59375 9.9375 6.375C9.78125 6.3125 9.625 6.34375 9.5 6.46875L9.375 6.59375C9.09375 6.84375 8.9375 7.1875 8.90625 7.53125C8.875 7.6875 8.96875 7.84375 9.09375 7.9375C9.375 8.0625 9.625 8.21875 9.8125 8.4375C10.8438 9.46875 10.8438 11.125 9.8125 12.1562L7.46875 14.5C6.4375 15.5312 4.78125 15.5312 3.75 14.5C2.71875 13.4688 2.71875 11.8125 3.75 10.7812L5.1875 9.34375C5.28125 9.25 5.3125 9.125 5.28125 9C5.1875 8.625 5.15625 8.21875 5.125 7.8125C5.125 7.5 4.71875 7.34375 4.5 7.5625C4.125 7.9375 3.53125 8.53125 2.53125 9.53125C0.8125 11.25 0.8125 14.0312 2.53125 15.7188C4.21875 17.4375 7 17.4375 8.71875 15.7188C11.2812 13.1562 11.1562 13.2812 11.3438 13.0312C12.75 11.3438 12.6562 8.78125 11.0625 7.1875ZM15.9375 2.3125C14.25 0.59375 11.4688 0.59375 9.75 2.3125C7.1875 4.875 7.3125 4.75 7.125 5C5.71875 6.6875 5.8125 9.25 7.40625 10.8438C7.75 11.1875 8.125 11.4375 8.53125 11.6562C8.6875 11.7188 8.84375 11.6875 8.96875 11.5625L9.09375 11.4375C9.375 11.1875 9.53125 10.8438 9.5625 10.5C9.59375 10.3438 9.5 10.1875 9.375 10.0938C9.09375 9.96875 8.84375 9.8125 8.65625 9.59375C7.625 8.5625 7.625 6.90625 8.65625 5.875L11 3.53125C12.0312 2.5 13.6875 2.5 14.7188 3.53125C15.75 4.5625 15.75 6.21875 14.7188 7.25L13.2812 8.6875C13.1875 8.78125 13.1562 8.90625 13.1875 9.03125C13.2812 9.40625 13.3125 9.8125 13.3438 10.2188C13.3438 10.5312 13.75 10.6875 13.9688 10.4688C14.3438 10.0938 14.9375 9.5 15.9375 8.5C17.6562 6.78125 17.6562 4 15.9375 2.3125Z" fill="#43A0FF"/>
</svg>
