<svg width="80" height="80" viewBox="0 0 80 80" fill="none" xmlns="http://www.w3.org/2000/svg">
<path d="M1.38073 39.6854L39.8423 78.1469L78.3038 39.6854L39.8423 1.22381L1.38073 39.6854Z" fill="#0BB2F7"/>
<g filter="url(#filter0_i_2244_12771)">
<path d="M5.18859 39.9507L40 74.7621L74.8114 39.9507L40 5.13932L5.18859 39.9507Z" fill="url(#paint0_linear_2244_12771)"/>
</g>
<g filter="url(#filter1_i_2244_12771)">
<path d="M27.1805 35.5801C27.1805 35.9647 27.1202 36.3493 26.9997 36.734C26.8943 37.1038 26.721 37.4514 26.48 37.7769C26.239 38.1023 25.9227 38.3833 25.531 38.62C25.1394 38.8567 24.6649 39.0269 24.1076 39.1304V39.2636C24.6047 39.308 25.0716 39.4189 25.5084 39.5964C25.9453 39.7739 26.3219 40.0254 26.6382 40.3508C26.9696 40.6615 27.2257 41.0461 27.4064 41.5047C27.6023 41.9485 27.7001 42.4737 27.7001 43.0801C27.7001 43.8937 27.5044 44.589 27.1127 45.166C26.7361 45.7429 26.239 46.2162 25.6214 46.586C25.0038 46.9559 24.2958 47.2295 23.4975 47.407C22.6991 47.5846 21.8857 47.6733 21.0572 47.6733C20.786 47.6733 20.4246 47.6733 19.9727 47.6733C19.5358 47.6733 19.0614 47.6585 18.5492 47.629C18.052 47.6141 17.54 47.5846 17.0127 47.5402C16.5006 47.4958 16.0336 47.4293 15.6118 47.3405V32.0298C15.9281 31.9854 16.2821 31.941 16.6738 31.8967C17.0805 31.8523 17.5098 31.8153 17.9617 31.7857C18.4287 31.7562 18.9032 31.734 19.3852 31.7192C19.8672 31.7044 20.3493 31.697 20.8313 31.697C21.6146 31.697 22.3828 31.7562 23.136 31.8745C23.8891 31.978 24.567 32.1777 25.1695 32.4737C25.772 32.7547 26.254 33.1467 26.6156 33.6497C26.9922 34.1526 27.1805 34.7961 27.1805 35.5801ZM21.012 45.0106C21.4338 45.0106 21.833 44.9737 22.2096 44.8997C22.6012 44.8257 22.9401 44.7073 23.2264 44.5447C23.5276 44.3671 23.7611 44.1526 23.9268 43.9011C24.1076 43.6349 24.1979 43.3094 24.1979 42.9248C24.1979 42.4514 24.0925 42.0742 23.8816 41.7931C23.6707 41.512 23.392 41.305 23.0456 41.1718C22.7142 41.0239 22.3376 40.9352 21.9158 40.9056C21.5091 40.8612 21.0949 40.839 20.6731 40.839H18.8204V44.8774C18.9107 44.907 19.0387 44.9293 19.2044 44.944C19.3852 44.9588 19.581 44.9736 19.7919 44.9884C20.0028 44.9884 20.2137 44.9958 20.4246 45.0106C20.6505 45.0106 20.8464 45.0106 21.012 45.0106ZM19.95 38.3982C20.176 38.3982 20.4397 38.3982 20.7409 38.3982C21.0572 38.3833 21.3208 38.3612 21.5317 38.3316C22.1644 38.1393 22.6991 37.8804 23.136 37.555C23.5728 37.2147 23.7912 36.7562 23.7912 36.1793C23.7912 35.7947 23.7084 35.484 23.5427 35.2473C23.377 35.0106 23.151 34.8257 22.8648 34.6926C22.5937 34.5594 22.2849 34.4707 21.9384 34.4263C21.592 34.3819 21.238 34.3597 20.8764 34.3597C20.4397 34.3597 20.0404 34.3671 19.6789 34.3819C19.3174 34.3967 19.0312 34.4189 18.8204 34.4485V38.3982H19.95Z" fill="white"/>
<path d="M45.2251 39.663L45.5867 36.4456H45.451L44.3665 38.8864L40.7061 44.6778H39.6667L35.7804 38.8642L34.7184 36.4678H34.5829L35.0574 39.6409V47.4515H31.894V31.9189H34.9218L39.486 39.0861L40.3446 40.7947H40.4576L41.2032 39.0417L45.564 31.9189H48.5692V47.4515H45.2251V39.663Z" fill="white"/>
<path d="M60.7296 43.1911C60.7296 42.7326 60.5338 42.3701 60.1421 42.1039C59.7505 41.8376 59.261 41.5935 58.6734 41.3716C58.101 41.1497 57.4759 40.9278 56.798 40.706C56.1202 40.484 55.4876 40.1882 54.9001 39.8183C54.3277 39.4486 53.8457 38.9826 53.454 38.4204C53.0623 37.8583 52.8665 37.126 52.8665 36.2237C52.8665 35.4545 53.0021 34.7814 53.2733 34.2045C53.5594 33.6127 53.9511 33.132 54.4482 32.7622C54.9603 32.3776 55.5704 32.0891 56.2783 31.8968C57.0014 31.7045 57.7923 31.6083 58.6509 31.6083C59.645 31.6083 60.5865 31.697 61.4753 31.8746C62.379 32.0373 63.1171 32.274 63.6896 32.5846L62.6276 35.3361C62.4468 35.2326 62.2133 35.129 61.9271 35.0255C61.656 34.9071 61.3397 34.811 60.9781 34.737C60.6167 34.6483 60.2325 34.5816 59.8258 34.5373C59.4191 34.4781 59.0049 34.4486 58.583 34.4486C57.8299 34.4486 57.2424 34.5816 56.8207 34.848C56.414 35.0994 56.2106 35.4545 56.2106 35.913C56.2106 36.3716 56.4064 36.7414 56.798 37.0225C57.1897 37.2888 57.6717 37.5403 58.2441 37.777C58.8317 37.9988 59.4643 38.2281 60.1421 38.4648C60.82 38.6867 61.4451 38.9826 62.0175 39.3524C62.605 39.7074 63.0946 40.1586 63.4862 40.706C63.8778 41.2533 64.0737 41.9559 64.0737 42.8139C64.0737 43.6719 63.923 44.4116 63.6217 45.0329C63.3205 45.6542 62.8912 46.1719 62.3338 46.5861C61.7916 46.9855 61.1363 47.2814 60.3681 47.4737C59.5999 47.666 58.7563 47.7622 57.8374 47.7622C57.2198 47.7622 56.6323 47.7252 56.075 47.6512C55.5327 47.592 55.0281 47.518 54.5612 47.4293C54.0942 47.3257 53.68 47.2222 53.3184 47.1186C52.972 47.0003 52.6933 46.8893 52.4824 46.7858L53.5896 44.0122C53.7553 44.1009 53.9812 44.197 54.2674 44.3006C54.5687 44.4042 54.9001 44.5077 55.2616 44.6113C55.6231 44.7 56.0073 44.7739 56.414 44.8332C56.8357 44.8923 57.2575 44.9219 57.6793 44.9219C58.6734 44.9219 59.4267 44.7814 59.9388 44.5003C60.466 44.2193 60.7296 43.7829 60.7296 43.1911Z" fill="white"/>
</g>
<defs>
<filter id="filter0_i_2244_12771" x="5.18848" y="5.13934" width="69.623" height="69.6228" filterUnits="userSpaceOnUse" color-interpolation-filters="sRGB">
<feFlood flood-opacity="0" result="BackgroundImageFix"/>
<feBlend mode="normal" in="SourceGraphic" in2="BackgroundImageFix" result="shape"/>
<feColorMatrix in="SourceAlpha" type="matrix" values="0 0 0 0 0 0 0 0 0 0 0 0 0 0 0 0 0 0 127 0" result="hardAlpha"/>
<feOffset/>
<feGaussianBlur stdDeviation="3"/>
<feComposite in2="hardAlpha" operator="arithmetic" k2="-1" k3="1"/>
<feColorMatrix type="matrix" values="0 0 0 0 0.4125 0 0 0 0 0.821889 0 0 0 0 1 0 0 0 0.67 0"/>
<feBlend mode="normal" in2="shape" result="effect1_innerShadow_2244_12771"/>
</filter>
<filter id="filter1_i_2244_12771" x="15.6118" y="31.6083" width="48.4619" height="17.1539" filterUnits="userSpaceOnUse" color-interpolation-filters="sRGB">
<feFlood flood-opacity="0" result="BackgroundImageFix"/>
<feBlend mode="normal" in="SourceGraphic" in2="BackgroundImageFix" result="shape"/>
<feColorMatrix in="SourceAlpha" type="matrix" values="0 0 0 0 0 0 0 0 0 0 0 0 0 0 0 0 0 0 127 0" result="hardAlpha"/>
<feOffset dy="1"/>
<feGaussianBlur stdDeviation="2"/>
<feComposite in2="hardAlpha" operator="arithmetic" k2="-1" k3="1"/>
<feColorMatrix type="matrix" values="0 0 0 0 0.0422222 0 0 0 0 0.461961 0 0 0 0 0.633333 0 0 0 0.15 0"/>
<feBlend mode="normal" in2="shape" result="effect1_innerShadow_2244_12771"/>
</filter>
<linearGradient id="paint0_linear_2244_12771" x1="22.5943" y1="57.3564" x2="74.9195" y2="33.5457" gradientUnits="userSpaceOnUse">
<stop stop-color="#05AFF5"/>
<stop offset="1" stop-color="#15BBFF"/>
</linearGradient>
</defs>
</svg>
