<svg width="52" height="52" viewBox="0 0 52 52" fill="none" xmlns="http://www.w3.org/2000/svg">
<path d="M0.897451 25.7955L25.8975 50.7955L50.8975 25.7955L25.8975 0.795456L0.897451 25.7955Z" fill="#0BB2F7"/>
<g filter="url(#filter0_i_2191_12768)">
<path d="M3.37259 25.968L26 48.5954L48.6274 25.968L26 3.34056L3.37259 25.968Z" fill="url(#paint0_linear_2191_12768)"/>
</g>
<g filter="url(#filter1_i_2191_12768)">
<path d="M17.6671 23.1271C17.6671 23.3771 17.6279 23.6271 17.5496 23.8771C17.4811 24.1175 17.3685 24.3434 17.2118 24.555C17.0552 24.7665 16.8495 24.9492 16.595 25.103C16.3404 25.2569 16.032 25.3675 15.6697 25.4348V25.5213C15.9928 25.5502 16.2963 25.6223 16.5803 25.7377C16.8642 25.853 17.109 26.0165 17.3146 26.228C17.53 26.43 17.6965 26.68 17.814 26.978C17.9413 27.2665 18.0049 27.6079 18.0049 28.0021C18.0049 28.5309 17.8776 28.9829 17.623 29.3579C17.3783 29.7329 17.0552 30.0405 16.6537 30.2809C16.2523 30.5213 15.7921 30.6992 15.2732 30.8146C14.7542 30.93 14.2255 30.9877 13.687 30.9877C13.5107 30.9877 13.2758 30.9877 12.982 30.9877C12.6981 30.9877 12.3897 30.978 12.0568 30.9588C11.7336 30.9492 11.4008 30.93 11.0581 30.9011C10.7252 30.8723 10.4216 30.829 10.1475 30.7713V20.8194C10.3531 20.7905 10.5832 20.7617 10.8378 20.7329C11.1021 20.704 11.3812 20.68 11.6749 20.6607C11.9784 20.6415 12.2869 20.6271 12.6002 20.6175C12.9135 20.6079 13.2268 20.603 13.5401 20.603C14.0493 20.603 14.5486 20.6415 15.0382 20.7184C15.5277 20.7857 15.9683 20.9155 16.36 21.1079C16.7516 21.2905 17.0649 21.5454 17.2999 21.8723C17.5447 22.1992 17.6671 22.6175 17.6671 23.1271ZM13.6576 29.2569C13.9318 29.2569 14.1912 29.2329 14.436 29.1848C14.6906 29.1367 14.9109 29.0598 15.0969 28.954C15.2927 28.8386 15.4445 28.6992 15.5522 28.5357C15.6697 28.3627 15.7284 28.1511 15.7284 27.9011C15.7284 27.5934 15.6599 27.3482 15.5228 27.1655C15.3858 26.9828 15.2046 26.8482 14.9794 26.7617C14.764 26.6655 14.5192 26.6079 14.2451 26.5886C13.9807 26.5598 13.7115 26.5454 13.4373 26.5454H12.233V29.1703C12.2917 29.1896 12.375 29.204 12.4827 29.2136C12.6002 29.2232 12.7275 29.2328 12.8645 29.2425C13.0016 29.2425 13.1387 29.2473 13.2758 29.2569C13.4226 29.2569 13.5499 29.2569 13.6576 29.2569ZM12.9673 24.9588C13.1142 24.9588 13.2856 24.9588 13.4814 24.9588C13.687 24.9492 13.8583 24.9348 13.9954 24.9155C14.4066 24.7905 14.7542 24.6223 15.0382 24.4107C15.3221 24.1896 15.4641 23.8915 15.4641 23.5165C15.4641 23.2665 15.4102 23.0646 15.3025 22.9107C15.1948 22.7569 15.048 22.6367 14.8619 22.5502C14.6857 22.4636 14.485 22.4059 14.2598 22.3771C14.0346 22.3482 13.8045 22.3338 13.5695 22.3338C13.2856 22.3338 13.0261 22.3386 12.7911 22.3482C12.5561 22.3579 12.3701 22.3723 12.233 22.3915V24.9588H12.9673Z" fill="white"/>
<path d="M29.3962 25.781L29.6312 23.6896H29.543L28.8381 25.2762L26.4588 29.0406H25.7832L23.2571 25.2617L22.5668 23.7041H22.4787L22.7871 25.7666V30.8435H20.731V20.7473H22.699L25.6657 25.406L26.2238 26.5166H26.2973L26.7819 25.3771L29.6165 20.7473H31.5698V30.8435H29.3962V25.781Z" fill="white"/>
<path d="M39.4739 28.0742C39.4739 27.7762 39.3467 27.5406 39.0921 27.3675C38.8375 27.1944 38.5193 27.0358 38.1374 26.8916C37.7654 26.7473 37.359 26.6031 36.9184 26.4589C36.4778 26.3146 36.0666 26.1223 35.6848 25.8819C35.3127 25.6416 34.9994 25.3387 34.7448 24.9733C34.4902 24.6079 34.3629 24.1319 34.3629 23.5454C34.3629 23.0454 34.4511 22.6079 34.6273 22.2329C34.8133 21.8483 35.0679 21.5358 35.391 21.2954C35.7239 21.0454 36.1205 20.8579 36.5806 20.7329C37.0506 20.6079 37.5647 20.5454 38.1228 20.5454C38.769 20.5454 39.3809 20.6031 39.9586 20.7185C40.5461 20.8242 41.0258 20.9781 41.3979 21.18L40.7076 22.9685C40.5901 22.9012 40.4384 22.8339 40.2523 22.7666C40.0761 22.6896 39.8705 22.6271 39.6355 22.5791C39.4005 22.5214 39.1508 22.4781 38.8865 22.4492C38.6221 22.4108 38.3529 22.3916 38.0787 22.3916C37.5891 22.3916 37.2073 22.4781 36.9331 22.6512C36.6688 22.8146 36.5366 23.0454 36.5366 23.3435C36.5366 23.6416 36.6639 23.8819 36.9184 24.0646C37.173 24.2377 37.4863 24.4012 37.8584 24.555C38.2403 24.6992 38.6515 24.8483 39.0921 25.0021C39.5327 25.1464 39.939 25.3387 40.3111 25.5791C40.6929 25.8098 41.0112 26.1031 41.2657 26.4589C41.5203 26.8146 41.6476 27.2714 41.6476 27.8291C41.6476 28.3867 41.5497 28.8675 41.3538 29.2714C41.158 29.6752 40.879 30.0117 40.5167 30.281C40.1642 30.5406 39.7383 30.7329 39.239 30.8579C38.7396 30.9829 38.1913 31.0454 37.594 31.0454C37.1926 31.0454 36.8107 31.0214 36.4485 30.9733C36.096 30.9348 35.768 30.8867 35.4645 30.8291C35.1609 30.7617 34.8917 30.6944 34.6567 30.6271C34.4315 30.5502 34.2503 30.4781 34.1133 30.4108L34.8329 28.6079C34.9406 28.6656 35.0875 28.7281 35.2735 28.7954C35.4693 28.8627 35.6848 28.93 35.9197 28.9973C36.1547 29.055 36.4044 29.1031 36.6688 29.1416C36.9429 29.18 37.2171 29.1992 37.4912 29.1992C38.1374 29.1992 38.627 29.1079 38.9599 28.9252C39.3026 28.7425 39.4739 28.4589 39.4739 28.0742Z" fill="white"/>
</g>
<defs>
<filter id="filter0_i_2191_12768" x="3.37256" y="3.34058" width="45.2549" height="45.2548" filterUnits="userSpaceOnUse" color-interpolation-filters="sRGB">
<feFlood flood-opacity="0" result="BackgroundImageFix"/>
<feBlend mode="normal" in="SourceGraphic" in2="BackgroundImageFix" result="shape"/>
<feColorMatrix in="SourceAlpha" type="matrix" values="0 0 0 0 0 0 0 0 0 0 0 0 0 0 0 0 0 0 127 0" result="hardAlpha"/>
<feOffset/>
<feGaussianBlur stdDeviation="3"/>
<feComposite in2="hardAlpha" operator="arithmetic" k2="-1" k3="1"/>
<feColorMatrix type="matrix" values="0 0 0 0 0.4125 0 0 0 0 0.821889 0 0 0 0 1 0 0 0 0.67 0"/>
<feBlend mode="normal" in2="shape" result="effect1_innerShadow_2191_12768"/>
</filter>
<filter id="filter1_i_2191_12768" x="10.1475" y="20.5454" width="31.5" height="11.5" filterUnits="userSpaceOnUse" color-interpolation-filters="sRGB">
<feFlood flood-opacity="0" result="BackgroundImageFix"/>
<feBlend mode="normal" in="SourceGraphic" in2="BackgroundImageFix" result="shape"/>
<feColorMatrix in="SourceAlpha" type="matrix" values="0 0 0 0 0 0 0 0 0 0 0 0 0 0 0 0 0 0 127 0" result="hardAlpha"/>
<feOffset dy="1"/>
<feGaussianBlur stdDeviation="2"/>
<feComposite in2="hardAlpha" operator="arithmetic" k2="-1" k3="1"/>
<feColorMatrix type="matrix" values="0 0 0 0 0.0422222 0 0 0 0 0.461961 0 0 0 0 0.633333 0 0 0 0.15 0"/>
<feBlend mode="normal" in2="shape" result="effect1_innerShadow_2191_12768"/>
</filter>
<linearGradient id="paint0_linear_2191_12768" x1="14.6863" y1="37.2817" x2="48.6977" y2="21.8047" gradientUnits="userSpaceOnUse">
<stop stop-color="#05AFF5"/>
<stop offset="1" stop-color="#15BBFF"/>
</linearGradient>
</defs>
</svg>
