<svg width="17" height="16" viewBox="0 0 17 16" fill="none" xmlns="http://www.w3.org/2000/svg">
<path d="M8.46875 0.25C6.40625 0.28125 4.53125 1.09375 3.125 2.40625L2 1.28125C1.53125 0.8125 0.75 1.15625 0.75 1.8125V6C0.75 6.4375 1.0625 6.75 1.5 6.75H5.6875C6.34375 6.75 6.6875 5.96875 6.21875 5.5L4.90625 4.1875C5.875 3.28125 7.125 2.78125 8.4375 2.78125C11.3125 2.75 13.75 5.0625 13.7188 8.0625C13.7188 10.9062 11.4062 13.25 8.5 13.25C7.1875 13.25 6 12.8125 5.03125 11.9688C4.875 11.8438 4.65625 11.8438 4.53125 11.9688L3.28125 13.2188C3.125 13.375 3.125 13.625 3.28125 13.7812C4.65625 15 6.5 15.75 8.5 15.75C12.75 15.75 16.2188 12.2812 16.25 8.03125C16.25 3.75 12.75 0.25 8.46875 0.25Z" fill="white"/>
</svg>
