<?xml version="1.0" standalone="no"?>
<!DOCTYPE svg PUBLIC "-//W3C//DTD SVG 20010904//EN"
 "http://www.w3.org/TR/2001/REC-SVG-20010904/DTD/svg10.dtd">
<svg version="1.0" xmlns="http://www.w3.org/2000/svg"
 width="700.000000pt" height="700.000000pt" viewBox="0 0 700.000000 700.000000"
 preserveAspectRatio="xMidYMid meet">
<metadata>
Created by potrace 1.14, written by Peter Selinger 2001-2017
</metadata>
<g transform="translate(0.000000,700.000000) scale(0.100000,-0.100000)"
fill="#000000" stroke="none">
<path d="M3345 6753 c-76 -76 -142 -137 -147 -135 -5 1 -7 -2 -4 -7 7 -11 -19
-33 -28 -23 -4 4 -6 2 -4 -4 4 -12 -321 -340 -333 -337 -5 2 -8 -1 -6 -5 3
-11 -314 -328 -324 -325 -5 2 -8 -1 -6 -5 3 -11 -304 -318 -315 -314 -4 1 -7
-2 -6 -6 4 -11 -292 -308 -303 -304 -5 1 -8 -2 -7 -6 4 -11 -773 -788 -784
-785 -4 2 -7 -1 -5 -6 3 -11 -294 -307 -305 -304 -4 2 -7 -1 -5 -5 1 -4 -143
-154 -320 -332 l-322 -324 194 -194 c107 -107 195 -199 195 -204 0 -4 4 -8 8
-8 6 0 2412 -2401 2535 -2530 8 -8 24 -21 35 -29 12 -8 19 -18 16 -23 -3 -4
-1 -8 4 -8 16 0 52 -41 46 -52 -4 -6 -3 -8 3 -5 13 8 46 -27 36 -38 -5 -4 -3
-5 3 -2 11 6 84 -59 84 -75 0 -4 4 -8 10 -8 5 0 48 -40 97 -90 48 -50 92 -90
98 -90 6 0 281 270 610 599 330 330 604 597 609 594 5 -4 6 -2 3 4 -8 12 127
146 137 136 4 -5 6 -3 4 3 -4 15 224 244 236 237 6 -3 8 -3 4 2 -10 11 243
266 255 258 6 -3 7 -2 4 4 -8 12 127 146 137 136 4 -5 6 -3 4 3 -4 14 223 245
234 238 5 -3 7 -1 6 4 -5 14 305 321 316 315 6 -4 8 -2 3 2 -9 11 384 405 397
398 5 -4 6 -2 3 3 -3 6 58 73 136 151 78 78 171 171 206 206 l64 65 -226 225
c-124 124 -223 228 -219 231 3 3 1 6 -5 6 -19 0 -374 361 -367 372 4 6 2 8 -4
4 -14 -8 -194 172 -186 186 4 6 2 8 -4 4 -14 -9 -965 942 -956 956 4 6 2 8 -4
4 -14 -8 -294 272 -286 286 4 6 3 8 -4 4 -14 -8 -324 302 -316 316 4 7 2 8 -4
4 -12 -7 -402 377 -402 396 0 6 -2 9 -6 6 -3 -3 -88 77 -190 178 -101 101
-186 184 -187 184 -2 0 -66 -62 -142 -137z"/>
</g>
</svg>
